<?xml version="1.0" encoding="UTF-8"?>
<svg version="1.1" xmlns="http://www.w3.org/2000/svg" width="2435" height="823">
<path d="M0 0 C3.22899619 0.61694914 6.08346522 1.32602492 9.09765625 2.64453125 C10.27654419 3.1552417 10.27654419 3.1552417 11.47924805 3.67626953 C12.33172119 4.05122559 13.18419434 4.42618164 14.0625 4.8125 C15.96600571 5.63964545 17.86965911 6.4664511 19.7734375 7.29296875 C20.78631836 7.73431152 21.79919922 8.1756543 22.84277344 8.63037109 C26.02800927 10.01215063 29.21965725 11.37784382 32.4140625 12.73828125 C45.80090828 18.44052124 59.13805359 24.24448275 72.44476318 30.13070679 C106.34735893 45.12658485 140.34930017 59.90984572 174.4440918 74.46362305 C187.6613296 80.10640066 200.8274573 85.85942695 213.98181152 91.64691162 C228.93984032 98.2277085 243.91996473 104.75631996 258.9102478 111.26327515 C272.68535518 117.24361148 286.44279904 123.26263827 300.1875 129.3125 C313.30126825 135.08425561 326.44302356 140.78378578 339.62194824 146.40509033 C352.65030185 151.96421908 365.62282708 157.64608284 378.5866394 163.35388184 C390.32282467 168.5202947 402.0791631 173.63126015 413.87402344 178.66259766 C424.02999143 182.99951102 434.15385463 187.40823433 444.26269531 191.85375977 C445.59959719 192.44159671 446.93651115 193.0294062 448.2734375 193.6171875 C448.92751587 193.90482468 449.58159424 194.19246185 450.25549316 194.48881531 C454.4633261 196.33573754 458.68417365 198.14929312 462.9140625 199.9453125 C501.84900883 216.55950423 537.12855275 242.32024212 562 277 C562.7734375 278.06347656 563.546875 279.12695312 564.34375 280.22265625 C573.12842599 292.6024308 580.59639016 305.56167717 587.15380859 319.23828125 C587.87883735 320.74774677 588.61951413 322.24967893 589.36328125 323.75 C595.40400975 336.34304965 599.55071458 349.87602854 603.25 363.3125 C603.48388428 364.1578833 603.71776855 365.0032666 603.95874023 365.87426758 C611.82125449 395.29465302 613.47446642 424.50709995 613.1159668 454.78027344 C613.10436523 455.83443954 613.09276367 456.88860565 613.08081055 457.97471619 C613.05691653 459.91700106 613.02703811 461.85922995 612.98876953 463.80128479 C612.90151377 470.02823863 613.14421033 476.200242 613.48901367 482.41479492 C614.06861917 493.05230218 614.14508717 503.66145285 614.1328125 514.3125 C614.1338352 516.3909863 614.13517862 518.46947246 614.1368103 520.54795837 C614.13951646 526.18674116 614.13501367 531.82549641 614.12857056 537.46427536 C614.12498065 541.01916333 614.12337471 544.5740472 614.12231445 548.12893677 C614.11077094 579.5749444 613.97996427 611.01957567 613.7734375 642.46484375 C613.76859108 643.20583352 613.76374467 643.9468233 613.75875139 644.71026731 C613.54143591 677.80709599 613.26570588 710.90353245 613 744 C579.35363217 744.02315889 545.70726641 744.0406436 512.06089232 744.05106533 C508.04043211 744.05231524 504.01997191 744.05360964 499.99951172 744.05493164 C499.19949424 744.05519395 498.39947677 744.05545626 497.57521634 744.05572652 C486.38506364 744.05948743 475.19491453 744.06563831 464.00476417 744.07373755 C338.44809462 744.16440469 338.44809462 744.16440469 296.84416533 743.70676112 C294.64425817 743.68419207 292.44436648 743.66644868 290.24440384 743.65028572 C219.1303797 743.09852703 146.61471148 719.96124402 91 675 C90.39349609 674.51063965 89.78699219 674.0212793 89.16210938 673.51708984 C75.50783264 662.39570403 62.706914 650.00134908 52 636 C51.09587511 634.87043449 50.1908704 633.74157285 49.28515625 632.61328125 C18.74601987 593.93546503 3.2945508 546.48252694 -2 498 C-2.08743469 497.23242371 -2.17486938 496.46484741 -2.26495361 495.67401123 C-3.09009499 487.73668358 -3.14534682 479.84038462 -3.1328125 471.8671875 C-3.13387462 470.3777921 -3.13526216 468.8883969 -3.13694763 467.39900208 C-3.13974974 463.39091375 -3.13535539 459.38286538 -3.12877274 455.37478256 C-3.12498561 452.86546529 -3.12292819 450.35615181 -3.12130737 447.84683228 C-3.10238111 422.91598599 -2.92563465 397.98811299 -2.59383392 373.05948639 C-2.56273027 370.70493115 -2.5328915 368.35036243 -2.50323486 365.99578857 C-2.45576272 362.27670256 -2.40341341 358.55771453 -2.34718513 354.83875084 C-2.31779339 352.85532648 -2.29168136 350.87185434 -2.26573181 348.88838196 C-2.16742481 342.88286483 -1.94818161 336.91918213 -1.49705601 330.9292593 C-0.99613603 323.58812297 -0.84771294 316.29009073 -0.84178162 308.93385315 C-0.83719952 307.58859536 -0.83219719 306.24333894 -0.82681805 304.8980841 C-0.81341476 301.24926901 -0.80587124 297.60046306 -0.79939139 293.95163 C-0.79130779 289.99888073 -0.77763809 286.04615005 -0.76467896 282.09341431 C-0.74302783 275.26087089 -0.72484245 268.42832549 -0.70907402 261.59576607 C-0.68627097 251.71727722 -0.65814321 241.83880906 -0.62875474 231.96033787 C-0.58120595 215.92954106 -0.53790773 199.89873574 -0.49731445 183.86791992 C-0.45789456 168.30411112 -0.41645299 152.74030984 -0.37231445 137.17651367 C-0.36959018 136.21565495 -0.36686591 135.25479623 -0.36405908 134.26482058 C-0.35037854 129.44402499 -0.33665847 124.62322951 -0.32291877 119.80243409 C-0.20915394 79.8683051 -0.10230083 39.93415991 0 0 Z " fill="#FFFEFE" transform="translate(48,44)"/>
<path d="M0 0 C3.22899619 0.61694914 6.08346522 1.32602492 9.09765625 2.64453125 C10.27654419 3.1552417 10.27654419 3.1552417 11.47924805 3.67626953 C12.33172119 4.05122559 13.18419434 4.42618164 14.0625 4.8125 C15.96600571 5.63964545 17.86965911 6.4664511 19.7734375 7.29296875 C20.78631836 7.73431152 21.79919922 8.1756543 22.84277344 8.63037109 C26.02800927 10.01215063 29.21965725 11.37784382 32.4140625 12.73828125 C45.80090828 18.44052124 59.13805359 24.24448275 72.44476318 30.13070679 C106.34735893 45.12658485 140.34930017 59.90984572 174.4440918 74.46362305 C187.6613296 80.10640066 200.8274573 85.85942695 213.98181152 91.64691162 C228.93984032 98.2277085 243.91996473 104.75631996 258.9102478 111.26327515 C272.68535518 117.24361148 286.44279904 123.26263827 300.1875 129.3125 C313.30126825 135.08425561 326.44302356 140.78378578 339.62194824 146.40509033 C352.65030185 151.96421908 365.62282708 157.64608284 378.5866394 163.35388184 C390.32282467 168.5202947 402.0791631 173.63126015 413.87402344 178.66259766 C424.02999143 182.99951102 434.15385463 187.40823433 444.26269531 191.85375977 C445.59959719 192.44159671 446.93651115 193.0294062 448.2734375 193.6171875 C448.92751587 193.90482468 449.58159424 194.19246185 450.25549316 194.48881531 C454.4633261 196.33573754 458.68417365 198.14929312 462.9140625 199.9453125 C501.84900883 216.55950423 537.12855275 242.32024212 562 277 C562.7734375 278.06347656 563.546875 279.12695312 564.34375 280.22265625 C573.12842599 292.6024308 580.59639016 305.56167717 587.15380859 319.23828125 C587.87883735 320.74774677 588.61951413 322.24967893 589.36328125 323.75 C595.40400975 336.34304965 599.55071458 349.87602854 603.25 363.3125 C603.48388428 364.1578833 603.71776855 365.0032666 603.95874023 365.87426758 C611.82125449 395.29465302 613.47446642 424.50709995 613.1159668 454.78027344 C613.10436523 455.83443954 613.09276367 456.88860565 613.08081055 457.97471619 C613.05691653 459.91700106 613.02703811 461.85922995 612.98876953 463.80128479 C612.90151377 470.02823863 613.14421033 476.200242 613.48901367 482.41479492 C614.06861917 493.05230218 614.14508717 503.66145285 614.1328125 514.3125 C614.1338352 516.3909863 614.13517862 518.46947246 614.1368103 520.54795837 C614.13951646 526.18674116 614.13501367 531.82549641 614.12857056 537.46427536 C614.12498065 541.01916333 614.12337471 544.5740472 614.12231445 548.12893677 C614.11077094 579.5749444 613.97996427 611.01957567 613.7734375 642.46484375 C613.76859108 643.20583352 613.76374467 643.9468233 613.75875139 644.71026731 C613.54143591 677.80709599 613.26570588 710.90353245 613 744 C579.35363217 744.02315889 545.70726641 744.0406436 512.06089232 744.05106533 C508.04043211 744.05231524 504.01997191 744.05360964 499.99951172 744.05493164 C499.19949424 744.05519395 498.39947677 744.05545626 497.57521634 744.05572652 C486.38506364 744.05948743 475.19491453 744.06563831 464.00476417 744.07373755 C338.44809462 744.16440469 338.44809462 744.16440469 296.84416533 743.70676112 C294.64425817 743.68419207 292.44436648 743.66644868 290.24440384 743.65028572 C219.1303797 743.09852703 146.61471148 719.96124402 91 675 C90.39349609 674.51063965 89.78699219 674.0212793 89.16210938 673.51708984 C75.50783264 662.39570403 62.706914 650.00134908 52 636 C51.09587511 634.87043449 50.1908704 633.74157285 49.28515625 632.61328125 C18.74601987 593.93546503 3.2945508 546.48252694 -2 498 C-2.08743469 497.23242371 -2.17486938 496.46484741 -2.26495361 495.67401123 C-3.09009499 487.73668358 -3.14534682 479.84038462 -3.1328125 471.8671875 C-3.13387462 470.3777921 -3.13526216 468.8883969 -3.13694763 467.39900208 C-3.13974974 463.39091375 -3.13535539 459.38286538 -3.12877274 455.37478256 C-3.12498561 452.86546529 -3.12292819 450.35615181 -3.12130737 447.84683228 C-3.10238111 422.91598599 -2.92563465 397.98811299 -2.59383392 373.05948639 C-2.56273027 370.70493115 -2.5328915 368.35036243 -2.50323486 365.99578857 C-2.45576272 362.27670256 -2.40341341 358.55771453 -2.34718513 354.83875084 C-2.31779339 352.85532648 -2.29168136 350.87185434 -2.26573181 348.88838196 C-2.16742481 342.88286483 -1.94818161 336.91918213 -1.49705601 330.9292593 C-0.99613603 323.58812297 -0.84771294 316.29009073 -0.84178162 308.93385315 C-0.83719952 307.58859536 -0.83219719 306.24333894 -0.82681805 304.8980841 C-0.81341476 301.24926901 -0.80587124 297.60046306 -0.79939139 293.95163 C-0.79130779 289.99888073 -0.77763809 286.04615005 -0.76467896 282.09341431 C-0.74302783 275.26087089 -0.72484245 268.42832549 -0.70907402 261.59576607 C-0.68627097 251.71727722 -0.65814321 241.83880906 -0.62875474 231.96033787 C-0.58120595 215.92954106 -0.53790773 199.89873574 -0.49731445 183.86791992 C-0.45789456 168.30411112 -0.41645299 152.74030984 -0.37231445 137.17651367 C-0.36959018 136.21565495 -0.36686591 135.25479623 -0.36405908 134.26482058 C-0.35037854 129.44402499 -0.33665847 124.62322951 -0.32291877 119.80243409 C-0.20915394 79.8683051 -0.10230083 39.93415991 0 0 Z M250 202 C248.72576172 202.22429687 248.72576172 202.22429687 247.42578125 202.453125 C242.20681373 203.3847754 237.10802924 204.58463503 232 206 C231.04915527 206.26264648 230.09831055 206.52529297 229.11865234 206.79589844 C192.59891507 217.08074743 157.03553061 233.17610779 128 258 C126.55753906 259.16982422 126.55753906 259.16982422 125.0859375 260.36328125 C111.73410617 271.25675871 99.5492253 283.36666316 89.30322266 297.23925781 C87.95149517 299.06553332 86.57687411 300.87291079 85.19921875 302.6796875 C70.27041307 322.42589898 58.08007324 344.58838294 50 368 C49.70109863 368.86238281 49.40219727 369.72476563 49.09423828 370.61328125 C42.42932495 390.09587161 38.52495184 409.5898006 36 430 C35.90211182 430.71784668 35.80422363 431.43569336 35.70336914 432.17529297 C34.6250443 441.07315627 34.80038241 450.05162681 34.8125 459 C34.81343658 459.88816406 34.81437317 460.77632813 34.81533813 461.69140625 C34.86861397 485.03829405 36.50823685 507.22916878 42 530 C42.16757813 530.71687988 42.33515625 531.43375977 42.5078125 532.17236328 C52.14232278 573.06800173 73.05469339 608.86516024 102 639 C102.8559375 639.8971875 103.711875 640.794375 104.59375 641.71875 C110.36595398 647.63708572 116.46654434 652.93911077 123 658 C123.53689453 658.41862305 124.07378906 658.83724609 124.62695312 659.26855469 C139.89626554 671.09306815 156.53156958 680.80873404 174 689 C174.67643555 689.32419922 175.35287109 689.64839844 176.04980469 689.98242188 C197.50104905 700.22391872 220.66485489 707.36297384 243.9375 712.0625 C245.84305664 712.44764771 245.84305664 712.44764771 247.78710938 712.84057617 C261.07825942 715.43931006 274.45534977 716.67506827 287.94921875 717.70629883 C291 718 291 718 293.43612862 718.51084042 C298.6493253 719.22637834 303.81673285 719.13361489 309.07272339 719.12025452 C310.91188645 719.12153615 310.91188645 719.12153615 312.78820431 719.12284368 C316.18374036 719.12420465 319.57921861 719.12108451 322.97474766 719.11606562 C326.6392981 719.11174332 330.30384678 719.11320881 333.96839905 719.1139679 C340.31492408 719.114492 346.66143883 719.11135703 353.00796127 719.10573006 C362.18394374 719.09759973 371.35992124 719.09499826 380.53590693 719.09374207 C395.42368035 719.09155396 410.3114483 719.08490041 425.19921875 719.07543945 C439.66048149 719.0662591 454.12174274 719.05918131 468.58300781 719.05493164 C469.47454315 719.05466892 470.36607849 719.05440619 471.28463005 719.05413551 C475.75724353 719.05283046 480.22985703 719.05156676 484.70247054 719.05032361 C521.8016519 719.03995851 558.90082311 719.02152424 596 719 C596 685.67 596 652.34 596 618 C568.61 617.67 541.22 617.34 513 617 C518.61 611.39 524.22 605.78 530 600 C533.83754133 595.39495041 537.52341646 590.85780582 541 586 C541.40734375 585.43700195 541.8146875 584.87400391 542.234375 584.29394531 C560.0514709 559.41485174 572.82594554 530.9832758 579 501 C579.26780273 499.73099854 579.53560547 498.46199707 579.81152344 497.15454102 C582.11850648 485.42655195 582.46317052 473.89962777 582.39111328 461.97045898 C582.3751065 458.83337332 582.39101446 455.69759252 582.41015625 452.56054688 C582.42955728 434.45282626 580.6755819 416.59827588 576.5625 398.9375 C576.34932129 397.99124756 576.13614258 397.04499512 575.91650391 396.07006836 C568.58350625 364.0504056 555.05058842 333.76306127 536 307 C535.54544434 306.35611328 535.09088867 305.71222656 534.62255859 305.04882812 C527.66323407 295.26041284 520.06445506 286.33571278 511.6875 277.734375 C510.09197277 276.09452757 508.51375075 274.43959714 506.9375 272.78125 C499.85386946 265.41511822 492.21114379 259.06983935 484 253 C483.34902344 252.5153125 482.69804688 252.030625 482.02734375 251.53125 C450.95465619 228.54105343 414.91588791 211.83200294 377 204 C376.11650879 203.81743652 375.23301758 203.63487305 374.32275391 203.44677734 C371.53102224 202.88272657 368.73607482 202.3415079 365.9375 201.8125 C365.1242627 201.6573291 364.31102539 201.5021582 363.47314453 201.34228516 C345.46191767 198.12712163 327.51025515 197.59697317 309.25 197.625 C308.03921783 197.62487915 306.82843567 197.6247583 305.58096313 197.62463379 C286.72811189 197.65140169 268.5533242 198.4946486 250 202 Z " fill="#FD0E56" transform="translate(48,44)"/>
<path d="M0 0 C0.77651917 -0.0061734 1.55303833 -0.0123468 2.35308838 -0.01870728 C39.93485181 -0.21072944 74.01078741 13.77253262 101.25 39.4375 C101.85199219 39.98664063 102.45398438 40.53578125 103.07421875 41.1015625 C125.34840864 62.18156506 139.85020182 96.11941955 141.35072327 126.47514343 C141.3975579 128.71571292 141.41475565 130.95425514 141.41796875 133.1953125 C141.42129715 134.02022186 141.42462555 134.84513123 141.42805481 135.69503784 C141.4330945 137.43470711 141.43546405 139.17438594 141.43530273 140.9140625 C141.43747637 143.53402269 141.45562827 146.15355231 141.47460938 148.7734375 C141.506615 158.18063446 141.12881522 167.17974172 139.25 176.4375 C139.03887573 177.5210376 139.03887573 177.5210376 138.82348633 178.62646484 C131.55683893 213.57239223 112.27847816 245.69701751 82.30419922 265.71630859 C75.25008565 270.23729972 67.88062315 273.99680361 60.25 277.4375 C59.63833984 277.71964355 59.02667969 278.00178711 58.39648438 278.29248047 C47.98035373 283.03903624 37.48222936 285.52032836 26.25 287.4375 C25.56824707 287.55609375 24.88649414 287.6746875 24.18408203 287.796875 C-13.45521118 294.09351554 -52.10208248 285.49896624 -83.75 264.4375 C-87.23269256 261.92386172 -90.50914082 259.2540241 -93.75 256.4375 C-94.63042969 255.70144531 -95.51085937 254.96539063 -96.41796875 254.20703125 C-116.16869605 237.13059142 -128.13819284 214.1185671 -135.5625 189.4375 C-135.8527002 188.4894751 -136.14290039 187.5414502 -136.44189453 186.56469727 C-140.41422437 172.75528513 -141.1641333 158.7229342 -141.125 144.4375 C-141.12445618 143.68147491 -141.12391235 142.92544983 -141.12335205 142.14651489 C-140.99423896 102.81711904 -127.83227149 67.25517585 -100.375 38.6875 C-83.44469893 22.45007602 -62.3363326 10.65088032 -39.75 4.4375 C-38.70585937 4.14117676 -38.70585937 4.14117676 -37.640625 3.83886719 C-25.19890911 0.4692358 -12.80700323 0.04311421 0 0 Z " fill="#FF0D56" transform="translate(356.75,363.5625)"/>
<path d="M0 0 C19.5317446 17.19862131 29.66251691 39.48447865 31.74609375 65.3203125 C33.07930071 86.31725041 26.53639066 106.82236238 13 123 C12.67 123.33 12.34 123.66 12 124 C20.58 124.33 29.16 124.66 38 125 C38 141.17 38 157.34 38 174 C11.39003327 174.08021762 11.39003327 174.08021762 -0.07617188 174.09765625 C-7.85704321 174.10954665 -15.63786686 174.12351242 -23.41870117 174.15087891 C-29.70165843 174.17283526 -35.98456444 174.18461596 -42.26755714 174.18975449 C-44.64775205 174.1934098 -47.02794461 174.20054567 -49.40811729 174.21146011 C-88.05246102 174.38139051 -125.13977616 170.25582125 -154 142 C-170.87355663 124.23836145 -177.44108621 101.52181361 -177.375 77.5 C-177.37478851 76.79234497 -177.37457703 76.08468994 -177.37435913 75.35559082 C-177.30246356 51.24638077 -170.65362995 29.74270548 -155 11 C-154.49082031 10.34515625 -153.98164062 9.6903125 -153.45703125 9.015625 C-138.11450194 -9.92576921 -112.41613646 -20.12655524 -88.72460938 -22.77294922 C-57.49203313 -25.37566391 -24.70045175 -20.79127661 0 0 Z M-102 52 C-110.30561019 62.97748978 -111.09232221 73.63149895 -110 87 C-108.21997398 97.19035031 -101.58300799 104.97917704 -93.3125 110.9375 C-83.29095247 116.5360186 -71.30852449 117.07093073 -60.3828125 114.34765625 C-51.16886628 111.23328502 -43.91974256 104.3598682 -38.9375 96.1171875 C-34.46419464 86.01497288 -34.0952536 72.29878825 -37.625 61.8125 C-42.10712256 51.72381994 -48.90544292 45.27673111 -59.1875 41.1875 C-74.70124834 36.35534888 -91.13224163 39.41627979 -102 52 Z " fill="#000000" transform="translate(907,391)"/>
<path d="M0 0 C20.79 0 41.58 0 63 0 C63 67.32 63 134.64 63 204 C42.87 204 22.74 204 2 204 C1.505 199.545 1.505 199.545 1 195 C0.25169922 195.56267578 0.25169922 195.56267578 -0.51171875 196.13671875 C-16.58931615 207.59597579 -35.43089744 209.98307375 -54.5625 206.8125 C-71.62482496 203.68905338 -87.01542269 195.19545715 -97.1953125 180.921875 C-105.92769685 167.32384476 -109.40661815 153.76806291 -109.3125 137.6875 C-109.30758545 136.68420654 -109.3026709 135.68091309 -109.29760742 134.6472168 C-108.99921598 115.65574915 -102.90742692 99.33831455 -89.875 85.375 C-74.35890077 70.56536735 -55.0777258 66.41574116 -34.22265625 66.72265625 C-21.71165556 67.18297313 -12.32456841 71.3377158 -1 77 C-0.67 51.59 -0.34 26.18 0 0 Z M-39.875 122.9375 C-44.55900763 129.68798158 -44.77831882 135.95412922 -44 144 C-42.33376499 149.93596224 -39.05974215 153.62683857 -34 157 C-27.59092045 159.63903276 -20.15299997 160.24333641 -13.46875 158.2421875 C-7.8987754 155.88423159 -3.40365808 153.10548712 0 148 C0.50779528 144.60084917 0.46253195 141.18301049 0.5 137.75 C0.54125 136.82058594 0.5825 135.89117187 0.625 134.93359375 C0.68044304 130.03381536 0.40835421 126.83239789 -2.78125 122.98046875 C-8.47875179 117.31828205 -14.08083006 115.76463291 -22.0625 115.5 C-29.60945517 115.74397484 -34.78665552 117.26260285 -39.875 122.9375 Z " fill="#000000" transform="translate(2179,361)"/>
<path d="M0 0 C20.79 0 41.58 0 63 0 C63.33 37.62 63.66 75.24 64 114 C73.50961469 101.35259591 73.50961469 101.35259591 82.8125 88.5625 C84.31585788 86.45550669 85.81895032 84.35424703 87.37628174 82.28674316 C89.03653144 80.0487183 89.03653144 80.0487183 90.26446533 77.64672852 C91.94203566 74.85393506 93.42230495 73.01441696 96 71 C101.40451764 69.73638029 106.71032816 69.94911953 112.21484375 70.12109375 C113.79663967 70.13789864 115.37848272 70.15070094 116.96034241 70.15968323 C121.10608288 70.19390295 125.24894484 70.28217181 129.39355469 70.38201904 C133.62981221 70.47440767 137.86653913 70.51525879 142.10351562 70.56054688 C150.40365878 70.65681347 158.70147047 70.81022889 167 71 C165.79532578 74.09711523 164.67295019 76.72234869 162.63671875 79.35546875 C162.1689502 79.96817627 161.70118164 80.58088379 161.21923828 81.2121582 C160.71376465 81.864021 160.20829102 82.51588379 159.6875 83.1875 C158.59361259 84.62129874 157.50121696 86.05623659 156.41015625 87.4921875 C155.84570801 88.23436523 155.28125977 88.97654297 154.69970703 89.74121094 C151.95268949 93.39180075 149.28856271 97.10080437 146.625 100.8125 C129.01444476 125.31076288 129.01444476 125.31076288 124.28662109 131.09692383 C123.86203613 131.72493896 123.43745117 132.3529541 123 133 C123.9722567 137.45617652 126.92481324 140.72407673 129.75 144.1875 C130.74932545 145.43569576 131.74799156 146.68441961 132.74609375 147.93359375 C133.2757373 148.59343262 133.80538086 149.25327148 134.35107422 149.93310547 C137.2060947 153.51181488 140.00696402 157.13245906 142.8125 160.75 C144.00118485 162.280039 145.18998819 163.80998596 146.37890625 165.33984375 C146.97461426 166.1066748 147.57032227 166.87350586 148.18408203 167.66357422 C150.60835144 170.78272699 153.03565789 173.89951043 155.46289062 177.01635742 C157.77166577 179.98275499 160.0769161 182.95188383 162.38232422 185.92089844 C163.93935058 187.92205094 165.50223939 189.91848915 167.06640625 191.9140625 C167.98190014 193.08844088 168.89727285 194.26291373 169.8125 195.4375 C170.60269531 196.44683594 171.39289063 197.45617187 172.20703125 198.49609375 C174 201 174 201 175 204 C165.82071429 204.37256989 156.64406863 204.65588512 147.45884323 204.82899475 C143.19215701 204.91213607 138.93067902 205.02460117 134.66699219 205.20703125 C104.77431341 206.45298855 104.77431341 206.45298855 98.24072266 200.63745117 C95.50760878 197.40633559 93.68609022 193.97810821 92.02662659 190.10380554 C90.22332067 186.40839668 87.52558609 183.42590323 84.875 180.3125 C83.87824813 179.08206265 82.88432715 177.84932107 81.89453125 176.61328125 C81.41322754 176.01467285 80.93192383 175.41606445 80.43603516 174.79931641 C74.75339608 167.67911069 69.29560366 160.41384512 64 153 C63.67 169.83 63.34 186.66 63 204 C42.21 204 21.42 204 0 204 C0 136.68 0 69.36 0 0 Z " fill="#000000" transform="translate(1409,361)"/>
<path d="M0 0 C9.14046824 8.67692627 15.19036557 19.83390631 15.77676582 32.63637924 C15.81006082 34.90714023 15.81121494 37.17579281 15.80102539 39.44677734 C15.80117142 40.30596771 15.80131744 41.16515808 15.8014679 42.05038452 C15.80077429 44.87476169 15.7930078 47.69907193 15.78515625 50.5234375 C15.78329011 52.48784346 15.78186713 54.4522499 15.78086853 56.41665649 C15.77705879 61.57543228 15.76724171 66.73417971 15.75616455 71.89294434 C15.74411408 78.08879511 15.73954084 84.28465538 15.73371124 90.48051453 C15.72402911 99.88286271 15.70486175 109.28514873 15.6875 118.6875 C-3.7825 118.6875 -23.2525 118.6875 -43.3125 118.6875 C-43.6425 116.0475 -43.9725 113.4075 -44.3125 110.6875 C-44.83714844 111.06261719 -45.36179687 111.43773437 -45.90234375 111.82421875 C-51.35026059 115.42292588 -56.71237385 117.68413962 -62.9375 119.5 C-63.64124756 119.7064917 -64.34499512 119.9129834 -65.07006836 120.12573242 C-83.14981517 125.14472241 -104.34805624 124.12986831 -121.0390625 115.234375 C-123.51671384 113.78725121 -125.92212979 112.27383659 -128.3125 110.6875 C-129.22 110.089375 -130.1275 109.49125 -131.0625 108.875 C-138.52570484 101.6191064 -142.23894557 92.63694552 -142.74609375 82.28515625 C-142.76942202 80.44025119 -142.7703166 78.59494068 -142.75 76.75 C-142.74242676 75.78433105 -142.73485352 74.81866211 -142.72705078 73.82373047 C-142.45311394 61.98845915 -138.93394876 53.5529825 -130.72265625 45.0390625 C-115.81791526 31.22149086 -94.70327038 30.94366916 -75.57861328 31.49072266 C-66.10918934 32.06123811 -56.02860667 33.81754864 -47.3125 37.6875 C-47.9003125 36.07875 -47.9003125 36.07875 -48.5 34.4375 C-48.83064453 33.53257812 -48.83064453 33.53257812 -49.16796875 32.609375 C-52.25204792 27.43064821 -56.96997606 25.86393323 -62.5625 24.4375 C-80.73614258 20.0688561 -99.2183812 22.93244818 -116.45703125 29.6015625 C-119.3125 30.6875 -119.3125 30.6875 -123.3125 31.6875 C-123.3125 18.1575 -123.3125 4.6275 -123.3125 -9.3125 C-106.37403846 -14.95865385 -106.37403846 -14.95865385 -100 -16.0625 C-98.76636719 -16.28421875 -97.53273438 -16.5059375 -96.26171875 -16.734375 C-65.11750303 -21.29356781 -25.27025722 -21.62261592 0 0 Z M-75.3125 69.6875 C-77.52745196 72.90275285 -78.3125 74.84294281 -78.3125 78.75 C-76.98657823 82.64489521 -75.64750593 84.25572484 -72.3125 86.6875 C-64.27291243 89.27221948 -57.04110027 86.3589415 -49.6875 83.0625 C-46.9350107 80.3100107 -46.96089286 79.66866186 -46.9375 75.9375 C-47.0336203 74.51858128 -47.14948495 73.10029706 -47.3125 71.6875 C-48.72728135 71.03754703 -50.14441487 70.39271278 -51.5625 69.75 C-52.35140625 69.39035156 -53.1403125 69.03070312 -53.953125 68.66015625 C-60.9744152 65.76561774 -68.90716143 65.11225817 -75.3125 69.6875 Z " fill="#000000" transform="translate(2043.3125,446.3125)"/>
<path d="M0 0 C8.83704458 8.37488535 15.21358372 19.25145876 15.77676582 31.65320969 C15.81009385 33.94895204 15.81120819 36.24261011 15.80102539 38.53857422 C15.80117142 39.40751816 15.80131744 40.2764621 15.8014679 41.17173767 C15.80077421 44.02858015 15.79300735 46.88535649 15.78515625 49.7421875 C15.78329014 51.72901372 15.78186715 53.71584039 15.78086853 55.70266724 C15.77705857 60.92062663 15.7672413 66.13855799 15.75616455 71.35650635 C15.74411468 77.62327495 15.73954094 83.89005295 15.73371124 90.15682983 C15.72402872 99.66707269 15.7048615 109.1772541 15.6875 118.6875 C-3.7825 118.6875 -23.2525 118.6875 -43.3125 118.6875 C-43.6425 116.0475 -43.9725 113.4075 -44.3125 110.6875 C-44.89515625 111.07421875 -45.4778125 111.4609375 -46.078125 111.859375 C-64.26495274 123.41201401 -86.50413025 125.2305038 -107.3125 120.6875 C-119.07241272 117.1621868 -131.62143034 111.13385599 -137.8203125 99.97265625 C-143.48680336 87.91112572 -144.64291015 72.87654894 -140.75 60 C-136.39522119 49.16653272 -128.55654967 42.16803104 -118.3125 37 C-97.55940664 28.23506956 -70.23602091 28.95457116 -49.296875 36.8203125 C-48.31460937 37.24957031 -48.31460937 37.24957031 -47.3125 37.6875 C-48.53629179 33.20026342 -49.78404187 30.71451347 -53.3125 27.6875 C-55.85604995 26.39992993 -55.85604995 26.39992993 -58.625 25.5 C-59.52863281 25.17644531 -60.43226562 24.85289062 -61.36328125 24.51953125 C-80.14931935 19.21962911 -100.58247916 23.29716427 -118.21484375 30.48046875 C-121.3125 31.6875 -121.3125 31.6875 -123.3125 31.6875 C-123.3125 18.4875 -123.3125 5.2875 -123.3125 -8.3125 C-117.68164618 -11.12792691 -113.26673811 -13.1368101 -107.3125 -14.4375 C-106.56887207 -14.60217773 -105.82524414 -14.76685547 -105.05908203 -14.93652344 C-72.11594076 -21.99626727 -27.17140367 -23.24934094 0 0 Z M-75.3125 69.6875 C-78.00488959 73.72608438 -78.08610247 76.94606548 -77.3125 81.6875 C-75.30383629 84.90136193 -73.78124113 86.2410661 -70.140625 87.34765625 C-62.39262609 88.61842677 -55.67388635 86.23780219 -49.0078125 82.33984375 C-47.10570882 80.8093029 -47.10570882 80.8093029 -46.921875 78.42578125 C-46.96828125 77.62527344 -47.0146875 76.82476563 -47.0625 76 C-47.11664062 74.78763672 -47.11664062 74.78763672 -47.171875 73.55078125 C-47.21828125 72.93589844 -47.2646875 72.32101562 -47.3125 71.6875 C-48.72728135 71.03754703 -50.14441487 70.39271278 -51.5625 69.75 C-52.35140625 69.39035156 -53.1403125 69.03070312 -53.953125 68.66015625 C-61.14137063 65.69679009 -68.64669573 65.29782402 -75.3125 69.6875 Z " fill="#000000" transform="translate(1260.3125,446.3125)"/>
<path d="M0 0 C20.79 0 41.58 0 63 0 C63.05607422 8.07275391 63.05607422 8.07275391 63.11328125 16.30859375 C63.14358017 19.73115097 63.17474056 23.15365739 63.20898438 26.57617188 C63.26317949 32.00086822 63.3142943 37.4254641 63.34643555 42.8503418 C63.37256774 47.22716917 63.41303927 51.60365652 63.46318626 55.98027229 C63.47978823 57.64465141 63.49134384 59.30908925 63.49761391 60.97353935 C63.45805547 73.30176799 63.45805547 73.30176799 67 85 C71.42577061 87.63438727 76.95006102 87.69212362 82 87 C87.34190961 85.25704889 90.87580999 82.74876882 94 78 C95.47687035 75.0462593 95.17880959 72.03691741 95.20532227 68.79638672 C95.21522186 68.0548233 95.22512146 67.31325989 95.23532104 66.54922485 C95.26696363 64.09274512 95.29170431 61.63624603 95.31640625 59.1796875 C95.3369734 57.478602 95.35796981 55.77752164 95.37937927 54.07644653 C95.43462464 49.59499264 95.48402303 45.11349244 95.53222656 40.63195801 C95.5912462 35.25712508 95.65748772 29.88237695 95.72252655 24.50761414 C95.82056709 16.33846113 95.90940185 8.16925422 96 0 C116.46 0 136.92 0 158 0 C158 43.89 158 87.78 158 133 C138.2 133 118.4 133 98 133 C97.505 128.545 97.505 128.545 97 124 C96.42894531 124.37511719 95.85789062 124.75023437 95.26953125 125.13671875 C77.18571473 136.55051073 57.8227671 139.51330912 37 135 C29.56958912 132.97706091 23.79004868 130.06010665 18 125 C17.41734375 124.54496094 16.8346875 124.08992187 16.234375 123.62109375 C7.91495616 116.44465813 2.3894833 103.75492449 1 93 C0.86622704 92.05074142 0.86622704 92.05074142 0.72975159 91.08230591 C-0.3610953 82.04411754 -0.12478685 72.95434159 -0.09765625 63.8671875 C-0.09578819 62.02059976 -0.09436612 60.17401151 -0.09336853 58.3274231 C-0.08957388 53.49750367 -0.07977009 48.66761493 -0.06866455 43.83770752 C-0.05657284 38.02638381 -0.05203364 32.21504977 -0.04621124 26.40371704 C-0.03655636 17.60245677 -0.01737854 8.80126366 0 0 Z " fill="#000000" transform="translate(951,432)"/>
<path d="M0 0 C0.70640625 0.54398437 1.4128125 1.08796875 2.140625 1.6484375 C15.76080408 12.72133118 21.58916501 29.1241551 24 46 C24 54.58 24 63.16 24 72 C-7.68 72.33 -39.36 72.66 -72 73 C-65.83130269 78.53933063 -65.83130269 78.53933063 -59 81.3125 C-58.030625 81.61800781 -57.06125 81.92351562 -56.0625 82.23828125 C-36.00187673 87.22784954 -12.26246178 83.66223423 7.26953125 77.76953125 C10 77 10 77 13 77 C13 89.54 13 102.08 13 115 C6.20280858 117.47170597 0.04319308 119.71115009 -6.9375 121.125 C-7.74251953 121.28967773 -8.54753906 121.45435547 -9.37695312 121.62402344 C-42.19942884 128.03367163 -78.68501124 127.89989548 -107.609375 109.32421875 C-111.42087373 106.55156836 -114.79327146 103.45989132 -118 100 C-118.72316406 99.24976563 -118.72316406 99.24976563 -119.4609375 98.484375 C-133.4430619 83.29567134 -133.71767563 63.68637785 -133.17480469 44.20214844 C-132.34973142 29.08809672 -125.35886691 14.32457736 -114.85546875 3.53515625 C-85.56231678 -22.47203339 -30.84733636 -24.83101189 0 0 Z M-69.9375 29.375 C-72.41593022 32.12265639 -72.41593022 32.12265639 -73 37 C-60.79 37 -48.58 37 -36 37 C-37.21708069 30.91459654 -39.08045662 29.37136409 -44 26 C-52.75808801 21.81134921 -62.52405698 23.38115245 -69.9375 29.375 Z " fill="#000000" transform="translate(1869,444)"/>
<path d="M0 0 C21.45 0 42.9 0 65 0 C65 45.21 65 90.42 65 137 C88.76 137 112.52 137 137 137 C137 155.48 137 173.96 137 193 C91.79 193 46.58 193 0 193 C0 129.31 0 65.62 0 0 Z " fill="#000000" transform="translate(1597,372)"/>
<path d="M0 0 C0 14.19 0 28.38 0 43 C-2.74548242 41.90180703 -5.48691947 40.79242166 -8.20703125 39.6328125 C-21.63841437 34.01578771 -35.48911532 29.83616675 -50.1875 29.875 C-51.17105469 29.87242187 -52.15460937 29.86984375 -53.16796875 29.8671875 C-55.90796922 29.99568407 -58.3584244 30.25866972 -61 31 C-61.495 31.99 -61.495 31.99 -62 33 C-61.32235596 33.11480713 -60.64471191 33.22961426 -59.9465332 33.34790039 C-10.23659553 41.92696138 -10.23659553 41.92696138 3.37890625 58.54296875 C10.21565602 68.90517503 11.53419937 82.53178831 9.3125 94.5625 C6.81543156 104.29422564 0.75938613 112.77469506 -7.79736328 118.12353516 C-37.99273835 135.32743865 -78.36422127 132.66954822 -111 124 C-116.15512684 122.39037222 -121.1684822 120.4157589 -126 118 C-126 103.81 -126 89.62 -126 75 C-121.68395962 76.43868013 -117.85088641 77.93540344 -113.75 79.8125 C-105.42620594 83.48679418 -96.81273573 85.81320068 -88 88 C-87.05898437 88.24878906 -86.11796875 88.49757813 -85.1484375 88.75390625 C-75.66800196 90.90581463 -65.66136278 90.17490282 -56 90 C-56.33 89.34 -56.66 88.68 -57 88 C-59.07999435 87.34621241 -61.19393754 86.7997214 -63.31640625 86.30078125 C-64.64444498 85.97965611 -65.97231978 85.65785242 -67.30004883 85.33544922 C-67.99691803 85.16881775 -68.69378723 85.00218628 -69.41177368 84.83050537 C-85.47111549 80.96259096 -100.10583134 76.27195018 -114 67 C-114.9075 66.4225 -115.815 65.845 -116.75 65.25 C-125.09991873 56.90008127 -128.04694712 45.97402642 -128.375 34.4375 C-128.04615444 22.95530923 -124.49256328 11.91903767 -116 3.8125 C-86.34125088 -19.09677448 -32.14285086 -16.07142543 0 0 Z " fill="#000000" transform="translate(2382,439)"/>
<path d="M0 0 C0 16.17 0 32.34 0 49 C-6.6 49.66 -13.2 50.32 -20 51 C-30.6304202 53.73353662 -38.28691791 56.28691791 -46 64 C-46.3333729 67.15776613 -46.3333729 67.15776613 -46.31884766 70.92822266 C-46.32889328 71.64052536 -46.3389389 72.35282806 -46.34928894 73.0867157 C-46.38022904 75.44582293 -46.39718577 77.80481615 -46.4140625 80.1640625 C-46.43276548 81.79789214 -46.45233823 83.43171203 -46.4727478 85.06552124 C-46.5241671 89.36940781 -46.56374018 93.67332573 -46.60089111 97.97735596 C-46.64789631 103.13947894 -46.70953592 108.30144519 -46.76873779 113.46343994 C-46.85706945 121.30889704 -46.92674797 129.15432228 -47 137 C-67.79 137 -88.58 137 -110 137 C-110 93.11 -110 49.22 -110 4 C-89.87 4 -69.74 4 -49 4 C-49 7.3 -49 10.6 -49 14 C-48.12859375 13.46890625 -47.2571875 12.9378125 -46.359375 12.390625 C-31.25234849 3.35843813 -17.82565686 0 0 0 Z " fill="#000000" transform="translate(1402,428)"/>
<path d="M0 0 C0.33 0.66 0.66 1.32 1 2 C1.66 2 2.32 2 3 2 C3 1.34 3 0.68 3 0 C5.36613456 -1.18306728 6.86780736 -1.13354608 9.5 -1.125 C10.69109375 -1.12886719 10.69109375 -1.12886719 11.90625 -1.1328125 C14 -1 14 -1 16 0 C16 0.66 16 1.32 16 2 C19.05263664 2.98120464 20.94736336 2.98120464 24 2 C24 1.34 24 0.68 24 0 C26.39038206 -1.19519103 28.08241396 -1.26991328 30.75 -1.375 C31.59046875 -1.42398438 32.4309375 -1.47296875 33.296875 -1.5234375 C37.06777131 -0.79323504 39.59823548 1.07866589 42 4 C42.68115234 7.50512695 42.68115234 7.50512695 42.5859375 11.48828125 C42.57744781 12.19147995 42.56895813 12.89467865 42.56021118 13.6191864 C42.52678324 15.85189045 42.45154502 18.08089979 42.375 20.3125 C42.34488573 21.8313278 42.31751245 23.35021259 42.29296875 24.86914062 C42.22703363 28.58061534 42.1235945 32.28994673 42 36 C35.25 36.125 35.25 36.125 33 35 C32.505 22.13 32.505 22.13 32 9 C25.67082039 8.47825081 25.67082039 8.47825081 23 10 C22.96241577 11.1281311 22.96241577 11.1281311 22.92407227 12.27905273 C22.80849486 15.66539196 22.68559655 19.05142613 22.5625 22.4375 C22.52318359 23.62150391 22.48386719 24.80550781 22.44335938 26.02539062 C22.38051758 27.71245117 22.38051758 27.71245117 22.31640625 29.43359375 C22.27974854 30.47572021 22.24309082 31.51784668 22.20532227 32.59155273 C22 35 22 35 21 36 C18.32941149 36.14115161 15.67567762 36.04247107 13 36 C12.97494385 35.25838623 12.9498877 34.51677246 12.92407227 33.75268555 C12.80813868 30.39744672 12.68540015 27.04249056 12.5625 23.6875 C12.52318359 22.52025391 12.48386719 21.35300781 12.44335938 20.15039062 C12.40146484 19.03212891 12.35957031 17.91386719 12.31640625 16.76171875 C12.27974854 15.73006592 12.24309082 14.69841309 12.20532227 13.63549805 C12.09838758 10.89251742 12.09838758 10.89251742 11 8 C9.51988629 8.30798326 8.04092675 8.621518 6.5625 8.9375 C5.73878906 9.11152344 4.91507813 9.28554688 4.06640625 9.46484375 C2.02338796 9.80752994 2.02338796 9.80752994 1 11 C0.84235595 12.77869726 0.74899323 14.56318476 0.68359375 16.34765625 C0.64169922 17.42724609 0.59980469 18.50683594 0.55664062 19.61914062 C0.51732422 20.75544922 0.47800781 21.89175781 0.4375 23.0625 C0.39431641 24.20267578 0.35113281 25.34285156 0.30664062 26.51757812 C0.20017161 29.34492195 0.09815793 32.17235738 0 35 C-2.98212913 36.49106457 -5.71609658 36.11941467 -9 36 C-10 35 -10 35 -10.11352539 31.67358398 C-10.11336629 30.19774444 -10.10767314 28.72189931 -10.09765625 27.24609375 C-10.09553383 26.08292381 -10.09553383 26.08292381 -10.09336853 24.89625549 C-10.08775345 22.40996506 -10.07519846 19.9237634 -10.0625 17.4375 C-10.05748694 15.75586067 -10.0529237 14.07421994 -10.04882812 12.39257812 C-10.03777913 8.26168434 -10.02050445 4.13085724 -10 0 C-6.64338305 -1.67830848 -3.63864406 -0.6353188 0 0 Z " fill="#9C9898" transform="translate(2318,609)"/>
<path d="M0 0 C3.3 0 6.6 0 10 0 C10 17.16 10 34.32 10 52 C6.95699684 53.52150158 4.345915 53.23899393 1 53 C0.34 52.01 -0.32 51.02 -1 50 C-1.99 50.495 -2.98 50.99 -4 51.5 C-10.43057419 54.235587 -16.53403928 53.43998518 -23 51 C-26.59741769 48.81026749 -27.78107207 47.87571173 -28.8125 43.75 C-28.874375 42.8425 -28.93625 41.935 -29 41 C-29.66 41 -30.32 41 -31 41 C-31 36.71 -31 32.42 -31 28 C-30.34 28 -29.68 28 -29 28 C-28.95875 27.443125 -28.9175 26.88625 -28.875 26.3125 C-27.51022892 22.705605 -25.08919824 21.26961504 -22 19 C-21.34 19 -20.68 19 -20 19 C-20 18.34 -20 17.68 -20 17 C-17.03650719 16.01216906 -15.0287337 15.86589475 -11.9375 15.875 C-11.05964844 15.87242187 -10.18179688 15.86984375 -9.27734375 15.8671875 C-7 16 -7 16 -5 17 C-5 17.66 -5 18.32 -5 19 C-3.35 19.33 -1.7 19.66 0 20 C0 13.4 0 6.8 0 0 Z M-20 29 C-22.34549674 32.51824511 -22.57991403 33.85775694 -22 38 C-19.97019423 40.94649225 -18.3736419 42.61113814 -14.875 43.6015625 C-10.18402689 44.28302143 -6.31088518 44.20801436 -2 42 C0.40605973 38.27787404 0.21417474 35.38698389 -0.41015625 31.12890625 C-0.91812139 28.76814777 -0.91812139 28.76814777 -3 26.4375 C-9.31852046 23.40987561 -15.06376612 23.76460043 -20 29 Z " fill="#9C9898" transform="translate(2169,592)"/>
<path d="M0 0 C0.87527344 -0.00257813 1.75054688 -0.00515625 2.65234375 -0.0078125 C5.0625 0.125 5.0625 0.125 8.0625 1.125 C8.0625 1.785 8.0625 2.445 8.0625 3.125 C9.3825 3.455 10.7025 3.785 12.0625 4.125 C12.0625 3.135 12.0625 2.145 12.0625 1.125 C14.80155345 -0.24452673 17.03337332 -0.00121361 20.0625 0.125 C20.7225 0.455 21.3825 0.785 22.0625 1.125 C22.0625 17.955 22.0625 34.785 22.0625 52.125 C18.7625 52.125 15.4625 52.125 12.0625 52.125 C11.7325 46.515 11.4025 40.905 11.0625 35.125 C8.7525 35.785 6.4425 36.445 4.0625 37.125 C-1.5739336 37.90000962 -5.90038159 36.88115913 -10.9375 34.125 C-15.1330186 30.48888388 -17.68859201 27.65610335 -18.23828125 22.06640625 C-18.24214844 20.95136719 -18.24601562 19.83632813 -18.25 18.6875 C-18.26675781 17.57503906 -18.28351563 16.46257813 -18.30078125 15.31640625 C-17.75701638 10.53946108 -15.91486104 8.02905896 -12.4375 4.8125 C-9.9375 3.125 -9.9375 3.125 -6.9375 3.125 C-6.9375 2.465 -6.9375 1.805 -6.9375 1.125 C-4.46371876 -0.11189062 -2.75834683 -0.00810087 0 0 Z M-6 11.0625 C-8.58943788 15.15548245 -8.55658269 18.40228347 -7.9375 23.125 C-7.6075 24.115 -7.2775 25.105 -6.9375 26.125 C-1.95224807 28.61762597 2.77139817 28.48040559 8.0625 27.125 C10.77357713 25.74783334 10.77357713 25.74783334 12.0625 23.125 C12.55709361 18.67365752 12.56770945 16.25570686 10.75 12.1875 C8.70622214 9.68954928 7.12973764 9.26490007 3.9765625 8.8515625 C-0.21612369 8.66553888 -2.37065941 8.76638656 -6 11.0625 Z " fill="#9C9898" transform="translate(1869.9375,607.875)"/>
<path d="M0 0 C1.19625 0.12375 2.3925 0.2475 3.625 0.375 C6.6115429 4.19806844 7.67306089 8.55437212 8.8125 13.1875 C8.98974609 13.88037109 9.16699219 14.57324219 9.34960938 15.28710938 C9.78190974 16.98125944 10.20445894 18.67789268 10.625 20.375 C13.03490104 13.48675931 13.03490104 13.48675931 14.625 6.375 C15.285 6.375 15.945 6.375 16.625 6.375 C16.625 4.725 16.625 3.075 16.625 1.375 C19.33379335 0.02060332 21.63433268 0.30998549 24.625 0.375 C30.68110413 13.86894075 30.68110413 13.86894075 31.625 19.375 C34.26715563 15.41176656 35.03810693 11.21678495 36.125 6.6484375 C36.56824371 4.87546266 37.09106473 3.12280374 37.625 1.375 C40.36405345 0.00547327 42.59587332 0.24878639 45.625 0.375 C46.285 0.705 46.945 1.035 47.625 1.375 C46.88667509 9.31199274 44.64806106 17.35422953 41.06640625 24.47265625 C39.74523606 27.13289866 39.00777307 29.35476747 38.4375 32.25 C38.19966797 33.42175781 38.19966797 33.42175781 37.95703125 34.6171875 C37.84746094 35.19726562 37.73789063 35.77734375 37.625 36.375 C30 37.625 30 37.625 26.625 35.375 C25.74609375 33.4921875 25.74609375 33.4921875 25.0625 31.25 C24.81757812 30.45464844 24.57265625 29.65929687 24.3203125 28.83984375 C23.34077746 25.36744705 22.45494279 21.88629641 21.625 18.375 C21.44324219 18.92027344 21.26148438 19.46554687 21.07421875 20.02734375 C18.34960938 28.20117188 18.34960938 28.20117188 15.625 36.375 C9 37.5 9 37.5 5.625 36.375 C4.67358398 34.52075195 4.67358398 34.52075195 3.87109375 32.11328125 C3.57396484 31.24123047 3.27683594 30.36917969 2.97070312 29.47070312 C2.52114258 28.09301758 2.52114258 28.09301758 2.0625 26.6875 C1.75892578 25.78837891 1.45535156 24.88925781 1.14257812 23.96289062 C0.5536798 22.21415768 -0.02896161 20.4633028 -0.60473633 18.71020508 C-1.23142675 16.81027042 -1.88518241 14.91927953 -2.546875 13.03125 C-3.33465125 10.50442051 -3.78943375 8.1902031 -4.0625 5.5625 C-4.14886719 4.79292969 -4.23523437 4.02335938 -4.32421875 3.23046875 C-4.34097656 2.61816406 -4.35773438 2.00585938 -4.375 1.375 C-3.375 0.375 -3.375 0.375 0 0 Z " fill="#9C9898" transform="translate(1735.375,607.625)"/>
<path d="M0 0 C1.19625 0.12375 2.3925 0.2475 3.625 0.375 C6.6115429 4.19806844 7.67306089 8.55437212 8.8125 13.1875 C8.98974609 13.88037109 9.16699219 14.57324219 9.34960938 15.28710938 C9.78190974 16.98125944 10.20445894 18.67789268 10.625 20.375 C10.80675781 19.44816406 10.98851562 18.52132812 11.17578125 17.56640625 C11.42714844 16.36886719 11.67851563 15.17132812 11.9375 13.9375 C12.18113281 12.74253906 12.42476562 11.54757812 12.67578125 10.31640625 C12.98902344 9.34574219 13.30226563 8.37507812 13.625 7.375 C14.615 7.045 15.605 6.715 16.625 6.375 C16.625 4.725 16.625 3.075 16.625 1.375 C23.375 0.25 23.375 0.25 25.625 1.375 C26.21855614 4.02360427 26.36709269 6.66697322 26.625 9.375 C27.285 9.375 27.945 9.375 28.625 9.375 C29.615 12.675 30.605 15.975 31.625 19.375 C32.02332031 18.18003906 32.02332031 18.18003906 32.4296875 16.9609375 C33.49479167 13.765625 34.55989583 10.5703125 35.625 7.375 C35.95757813 6.27414062 36.29015625 5.17328125 36.6328125 4.0390625 C37.625 1.375 37.625 1.375 39.625 0.375 C45.16346154 0.14423077 45.16346154 0.14423077 47.625 1.375 C46.67407485 7.95640303 45.2481492 13.83713304 42.640625 19.95703125 C40.41795187 25.24870305 38.5408105 30.69697488 37.625 36.375 C36.366875 36.560625 35.10875 36.74625 33.8125 36.9375 C32.75095703 37.09412109 32.75095703 37.09412109 31.66796875 37.25390625 C29.625 37.375 29.625 37.375 26.625 36.375 C25.79466608 33.87217854 25.13718148 31.49873476 24.5625 28.9375 C23.54482298 23.69378265 23.54482298 23.69378265 20.625 19.375 C20.38265625 20.33921875 20.1403125 21.3034375 19.890625 22.296875 C19.55546875 23.56015625 19.2203125 24.8234375 18.875 26.125 C18.55015625 27.37796875 18.2253125 28.6309375 17.890625 29.921875 C16.59530069 33.45603144 15.59507819 35.1152795 12.625 37.375 C9.1875 37.875 9.1875 37.875 5.625 36.375 C3.35822695 32.58286493 2.00869144 28.55670956 0.625 24.375 C0.32722656 23.55644531 0.02945312 22.73789062 -0.27734375 21.89453125 C-2.56582938 15.46172339 -5.02186509 8.27489427 -4.375 1.375 C-3.375 0.375 -3.375 0.375 0 0 Z " fill="#9C9898" transform="translate(1789.375,607.625)"/>
<path d="M0 0 C6.75 -0.125 6.75 -0.125 9 1 C9.78125 3.51171875 9.78125 3.51171875 10.5 6.6875 C11.48379632 10.87737369 12.53611657 14.94616897 14 19 C15.9451 16.08235 16.45276317 14.37462715 17 11 C17.66 11 18.32 11 19 11 C19.04898437 10.28972656 19.09796875 9.57945312 19.1484375 8.84765625 C19.22320313 7.92855469 19.29796875 7.00945313 19.375 6.0625 C19.44460938 5.14597656 19.51421875 4.22945312 19.5859375 3.28515625 C19.72257812 2.53105469 19.85921875 1.77695312 20 1 C22.70879335 -0.35439668 25.00933268 -0.06501451 28 0 C28.33 1.32 28.66 2.64 29 4 C29.66 4 30.32 4 31 4 C31.48212214 5.56159059 31.96055873 7.12431928 32.4375 8.6875 C32.70433594 9.55761719 32.97117187 10.42773438 33.24609375 11.32421875 C33.96344529 13.87025921 34.517541 16.4003423 35 19 C36.86834607 16.1974809 37.38505192 14.86656195 38 11.6875 C38.76651414 8.01661587 39.60244342 4.49389146 41 1 C43.79870027 -0.39935013 45.90498792 -0.25265405 49 0 C50.69140625 1.515625 50.69140625 1.515625 52 3 C51.38125 4.794375 51.38125 4.794375 50.75 6.625 C49.38442667 10.69607541 48.20678623 14.7990735 47.0625 18.9375 C45.41207425 24.80638848 43.42226957 30.40816494 41 36 C33.25 37.125 33.25 37.125 31 36 C30 33.70703125 30 33.70703125 29 30.8125 C28.48179688 29.3275 28.48179688 29.3275 27.953125 27.8125 C27.63859375 26.884375 27.3240625 25.95625 27 25 C26.5875 23.783125 26.175 22.56625 25.75 21.3125 C25.5025 20.549375 25.255 19.78625 25 19 C22.85289032 24.62338249 20.86763181 30.27789404 19 36 C12.82897033 37.30541012 12.82897033 37.30541012 9.625 36.125 C7.07187094 32.78629276 7.17211097 29.10484665 7 25 C6.34 25 5.68 25 5 25 C4.72285156 24.00097656 4.44570312 23.00195312 4.16015625 21.97265625 C3.79444451 20.66922209 3.42854962 19.36583931 3.0625 18.0625 C2.88009766 17.40314453 2.69769531 16.74378906 2.50976562 16.06445312 C1.77403899 12.76178827 1.77403899 12.76178827 0 10 C-0.07205511 8.31391034 -0.08386068 6.62499341 -0.0625 4.9375 C-0.05347656 4.01839844 -0.04445313 3.09929688 -0.03515625 2.15234375 C-0.02355469 1.44207031 -0.01195312 0.73179687 0 0 Z " fill="#9C9898" transform="translate(1678,608)"/>
<path d="M0 0 C1.15628906 -0.00257813 2.31257813 -0.00515625 3.50390625 -0.0078125 C6.4375 0.125 6.4375 0.125 8.4375 1.125 C8.4375 1.785 8.4375 2.445 8.4375 3.125 C9.18 3.2075 9.9225 3.29 10.6875 3.375 C14.05176412 4.29252658 15.30809621 5.38719512 17.4375 8.125 C18.76806236 13.30079539 18.62138378 18.44139542 18.625 23.75 C18.63724609 24.70390625 18.64949219 25.6578125 18.66210938 26.640625 C18.66404297 27.55585937 18.66597656 28.47109375 18.66796875 29.4140625 C18.67207764 30.24631348 18.67618652 31.07856445 18.68041992 31.93603516 C18.4375 34.125 18.4375 34.125 16.4375 37.125 C12.9375 37.4375 12.9375 37.4375 9.4375 37.125 C8.7775 36.465 8.1175 35.805 7.4375 35.125 C6.2 35.62 6.2 35.62 4.9375 36.125 C-2.10411219 38.1368892 -7.25537846 37.58773339 -13.5625 34.125 C-16.47708449 31.04736184 -16.97241063 28.88259426 -16.9375 24.6875 C-16.79977051 20.37771476 -16.61946341 17.38576098 -13.5625 14.125 C-8.42419056 10.39972566 -2.68356163 10.41303362 3.4375 11.125 C5.7734375 12.14453125 5.7734375 12.14453125 7.4375 13.125 C6.7775 12.135 6.1175 11.145 5.4375 10.125 C3.40862689 9.71019893 3.40862689 9.71019893 1.0859375 9.83203125 C-0.19023438 9.8465332 -0.19023438 9.8465332 -1.4921875 9.86132812 C-2.38164063 9.88646484 -3.27109375 9.91160156 -4.1875 9.9375 C-5.53328125 9.95780273 -5.53328125 9.95780273 -6.90625 9.97851562 C-9.12559789 10.01393075 -11.34375188 10.06331539 -13.5625 10.125 C-13.5625 7.815 -13.5625 5.505 -13.5625 3.125 C-12.2425 3.125 -10.9225 3.125 -9.5625 3.125 C-9.5625 2.465 -9.5625 1.805 -9.5625 1.125 C-6.18481526 -0.00089491 -3.55437928 -0.00794275 0 0 Z M-7.5625 22.125 C-7.24208603 24.72780568 -7.24208603 24.72780568 -6.5625 27.125 C-1.31617413 28.02953894 2.51578401 28.64587892 7.4375 26.125 C8.40627057 24.09256452 8.40627057 24.09256452 8.4375 22.125 C5.28780499 20.27913223 2.94865326 19.85329162 -0.6875 19.875 C-1.55632812 19.86984375 -2.42515625 19.8646875 -3.3203125 19.859375 C-5.76453887 19.9143659 -5.76453887 19.9143659 -7.5625 22.125 Z " fill="#9C9898" transform="translate(1953.5625,607.875)"/>
<path d="M0 0 C1.051875 -0.00257813 2.10375 -0.00515625 3.1875 -0.0078125 C6 0.125 6 0.125 9 1.125 C9 1.785 9 2.445 9 3.125 C9.61875 3.2075 10.2375 3.29 10.875 3.375 C13 4.125 13 4.125 14.25 6.1875 C14.4975 6.826875 14.745 7.46625 15 8.125 C15.66 8.125 16.32 8.125 17 8.125 C17.9821994 11.40126375 18.11580914 14.35288119 18.09765625 17.765625 C18.09443359 18.83554687 18.09121094 19.90546875 18.08789062 21.0078125 C18.07532227 22.67457031 18.07532227 22.67457031 18.0625 24.375 C18.05798828 25.50164063 18.05347656 26.62828125 18.04882812 27.7890625 C18.03705397 30.56776217 18.0206084 33.34635409 18 36.125 C15.04335481 37.6033226 12.25770263 37.18532783 9 37.125 C8.67 36.465 8.34 35.805 8 35.125 C6.7625 35.62 6.7625 35.62 5.5 36.125 C-0.10704909 37.72701403 -4.27777302 37.67037188 -9.75 35.9375 C-13.33517954 33.93807295 -15.03849616 32.73416707 -17 29.125 C-17.97160802 24.24862768 -17.57131852 20.36937997 -14.8125 16.1875 C-12.63229188 13.25979195 -10.47459863 12.19684256 -7 11.125 C-4.24609375 10.859375 -4.24609375 10.859375 -1.4375 10.875 C-0.50808594 10.86984375 0.42132812 10.8646875 1.37890625 10.859375 C4.0554462 11.13061899 5.70438282 11.76383405 8 13.125 C6.39441516 11.19963062 5.52230522 10.21425833 3.00708008 9.78442383 C1.89949341 9.8079895 1.89949341 9.8079895 0.76953125 9.83203125 C-0.43413086 9.8465332 -0.43413086 9.8465332 -1.66210938 9.86132812 C-2.91217773 9.8990332 -2.91217773 9.8990332 -4.1875 9.9375 C-5.03248047 9.95103516 -5.87746094 9.96457031 -6.74804688 9.97851562 C-8.83230384 10.01384201 -10.91623277 10.06764861 -13 10.125 C-13 7.815 -13 5.505 -13 3.125 C-11.68 3.125 -10.36 3.125 -9 3.125 C-9 2.465 -9 1.805 -9 1.125 C-5.77717587 0.05072529 -3.38488847 -0.0082963 0 0 Z M-7 21.125 C-7 23.105 -7 25.085 -7 27.125 C-1.43842552 28.03957003 2.675665 28.44586397 8 26.125 C8 24.475 8 22.825 8 21.125 C5.03650719 20.13716906 3.0287337 19.99089475 -0.0625 20 C-0.94035156 19.99742187 -1.81820312 19.99484375 -2.72265625 19.9921875 C-5.03198266 19.97666576 -5.03198266 19.97666576 -7 21.125 Z " fill="#9C9898" transform="translate(2116,607.875)"/>
<path d="M0 0 C3.3 0 6.6 0 10 0 C10.33 9.57 10.66 19.14 11 29 C13.97 25.7 16.94 22.4 20 19 C23 16 23 16 25.04296875 15.70703125 C27.02864583 15.8046875 29.01432292 15.90234375 31 16 C31.6875 18.3125 31.6875 18.3125 32 21 C30.6875 22.8125 30.6875 22.8125 29 24 C28.34 24 27.68 24 27 24 C26.7525 24.556875 26.505 25.11375 26.25 25.6875 C24.33305069 29.23385622 21.84261197 32.15738803 19 35 C19.86625 35.84304688 20.7325 36.68609375 21.625 37.5546875 C22.75026041 38.66119357 23.87524628 39.76797888 25 40.875 C25.57234375 41.43058594 26.1446875 41.98617187 26.734375 42.55859375 C28.19450782 44.00134404 29.60149298 45.4974374 31 47 C31 47.66 31 48.32 31 49 C31.99 49.33 32.98 49.66 34 50 C34 50.99 34 51.98 34 53 C29.80712068 53.61146157 26.39518845 53.89176993 22.7265625 51.546875 C20.71930376 49.77093604 18.84187362 47.94605199 17 46 C16.43023438 45.47019531 15.86046875 44.94039062 15.2734375 44.39453125 C14 43 14 43 14 41 C13.01 40.67 12.02 40.34 11 40 C10.95101563 40.85464844 10.90203125 41.70929687 10.8515625 42.58984375 C10.77679687 43.69457031 10.70203125 44.79929687 10.625 45.9375 C10.55539062 47.03964844 10.48578125 48.14179687 10.4140625 49.27734375 C10.27742188 50.17582031 10.14078125 51.07429687 10 52 C7.01787087 53.49106457 4.28390342 53.11941467 1 53 C0 52 0 52 -0.12025452 49.90562439 C-0.1169236 48.52329369 -0.1169236 48.52329369 -0.11352539 47.11303711 C-0.11344986 46.07203354 -0.11337433 45.03102997 -0.11329651 43.95848083 C-0.10813522 42.8262056 -0.10297394 41.69393036 -0.09765625 40.52734375 C-0.0962413 39.37456436 -0.09482635 38.22178497 -0.09336853 37.03407288 C-0.08775005 33.33518936 -0.07519442 29.63636536 -0.0625 25.9375 C-0.05748738 23.43684983 -0.05292406 20.93619871 -0.04882812 18.43554688 C-0.03777462 12.29034149 -0.0204976 6.14518085 0 0 Z " fill="#9C9898" transform="translate(2004,592)"/>
<path d="M0 0 C1.06347656 -0.00257813 2.12695312 -0.00515625 3.22265625 -0.0078125 C5.9375 0.125 5.9375 0.125 7.9375 1.125 C7.9375 1.785 7.9375 2.445 7.9375 3.125 C8.69417969 3.2075 9.45085938 3.29 10.23046875 3.375 C13.55620117 4.29641504 14.34808168 5.29423784 16.25 8.125 C17.01763672 9.2078125 17.01763672 9.2078125 17.80078125 10.3125 C18.9375 13.125 18.9375 13.125 18.9375 22.125 C9.3675 22.125 -0.2025 22.125 -10.0625 22.125 C-7.62297832 26.14811251 -7.62297832 26.14811251 -4.9375 26.875 C1.80763956 27.46153388 8.24665751 27.09821345 14.9375 26.125 C14.9375 29.095 14.9375 32.065 14.9375 35.125 C6.39184638 37.70481996 -2.62491581 38.59929937 -11.0625 35.125 C-14.69261687 32.74693733 -17.51682106 30.24444709 -19.0625 26.125 C-19.36328125 22.84765625 -19.36328125 22.84765625 -19.375 19.1875 C-19.39175781 17.98222656 -19.40851562 16.77695312 -19.42578125 15.53515625 C-18.89745639 10.57571967 -17.15017538 8.10656071 -13.5 4.8125 C-11.0625 3.125 -11.0625 3.125 -9.0625 3.125 C-9.0625 2.465 -9.0625 1.805 -9.0625 1.125 C-5.82377868 0.04542623 -3.40221795 -0.00826784 0 0 Z M-10.0625 12.125 C-10.0625 12.785 -10.0625 13.445 -10.0625 14.125 C-3.7925 14.125 2.4775 14.125 8.9375 14.125 C7.4375 10.125 7.4375 10.125 4.9375 9.125 C3.14997508 8.97745826 1.3558716 8.9038478 -0.4375 8.875 C-1.39398437 8.84921875 -2.35046875 8.8234375 -3.3359375 8.796875 C-6.4667708 9.1736515 -7.82304038 9.93860815 -10.0625 12.125 Z " fill="#9C9898" transform="translate(2077.0625,607.875)"/>
<path d="M0 0 C0.9590625 -0.00257813 1.918125 -0.00515625 2.90625 -0.0078125 C5.5 0.125 5.5 0.125 8.5 1.125 C8.5 1.785 8.5 2.445 8.5 3.125 C9.221875 3.186875 9.94375 3.24875 10.6875 3.3125 C14.69294517 4.46962861 16.03260615 5.72399767 18.5 9.125 C20.62595656 15.73374279 21.20338643 21.78484356 18.55859375 28.28515625 C17.00519795 30.98496961 15.1184102 32.48849363 12.5 34.125 C11.51 34.785 10.52 35.445 9.5 36.125 C2.66113479 38.13643094 -4.92029205 37.73205409 -11.5 35.125 C-15.64254517 32.50966043 -18.03685153 29.82989484 -19.5 25.125 C-19.80078125 21.96875 -19.80078125 21.96875 -19.8125 18.625 C-19.82925781 17.5215625 -19.84601562 16.418125 -19.86328125 15.28125 C-19.45933162 11.77166609 -18.65152366 9.9063608 -16.5 7.125 C-15.51 6.795 -14.52 6.465 -13.5 6.125 C-13.5 5.465 -13.5 4.805 -13.5 4.125 C-11.85 3.795 -10.2 3.465 -8.5 3.125 C-8.5 2.465 -8.5 1.805 -8.5 1.125 C-5.41493912 0.09664637 -3.2305728 -0.00868434 0 0 Z M-8.0625 10.5625 C-10.12509064 14.23929201 -10.72213977 17.91915361 -10.5 22.125 C-9.34526425 25.17718887 -8.90989677 25.91505288 -5.9375 27.4375 C-1.66938034 28.29112393 2.28817687 28.32035552 6.5 27.125 C8.7825216 25.48876542 9.40596716 24.58732814 9.96875 21.8203125 C10.02199466 17.44093927 9.91868808 14.82281347 7.625 11 C2.58697416 7.97718449 -2.86538256 7.64704388 -8.0625 10.5625 Z " fill="#9C9898" transform="translate(2283.5,607.875)"/>
<path d="M0 0 C0.66 0.33 1.32 0.66 2 1 C2.33 9.25 2.66 17.5 3 26 C10.22791051 27.26984097 10.22791051 27.26984097 16 25 C17.68300669 23.31699331 17.22809077 21.17991273 17.31640625 18.87109375 C17.35830078 17.83662109 17.40019531 16.80214844 17.44335938 15.73632812 C17.48267578 14.64771484 17.52199219 13.55910156 17.5625 12.4375 C17.60568359 11.34501953 17.64886719 10.25253906 17.69335938 9.12695312 C17.79982068 6.41810436 17.90183516 3.70916008 18 1 C24.625 -0.125 24.625 -0.125 28 1 C28.02465098 5.96622349 28.04283649 10.93241166 28.05493164 15.89868164 C28.0599719 17.58944316 28.06680405 19.28020029 28.07543945 20.97094727 C28.08751857 23.39600707 28.09323123 25.82100944 28.09765625 28.24609375 C28.10281754 29.00651474 28.10797882 29.76693573 28.11329651 30.55039978 C28.11349238 32.3673257 28.06197277 34.18413127 28 36 C26.10871658 37.89128342 23.42932274 37.2366852 20.91015625 37.328125 C20.27980469 37.21984375 19.64945313 37.1115625 19 37 C18.34 36.01 17.68 35.02 17 34 C16.34 34.66 15.68 35.32 15 36 C10.38227509 37.77604804 5.03603333 37.52084574 0.3125 36.3125 C-3.09511459 34.37844848 -6.29260999 32.00431706 -7.63452148 28.20214844 C-8.08569008 25.48368436 -8.11171845 22.89681613 -8.09765625 20.140625 C-8.09443359 19.02558594 -8.09121094 17.91054688 -8.08789062 16.76171875 C-8.07951172 15.60285156 -8.07113281 14.44398438 -8.0625 13.25 C-8.05798828 12.07566406 -8.05347656 10.90132812 -8.04882812 9.69140625 C-8.03705094 6.79421928 -8.02060326 3.89713546 -8 1 C-5.26094655 -0.36952673 -3.02912668 -0.12621361 0 0 Z " fill="#9C9898" transform="translate(1905,608)"/>
<path d="M0 0 C1.1653125 -0.00257813 2.330625 -0.00515625 3.53125 -0.0078125 C6.5 0.125 6.5 0.125 8.5 1.125 C8.5 1.785 8.5 2.445 8.5 3.125 C9.49 3.125 10.48 3.125 11.5 3.125 C11.5 5.765 11.5 8.405 11.5 11.125 C5.89 10.465 0.28 9.805 -5.5 9.125 C-5.5 10.445 -5.5 11.765 -5.5 13.125 C-4.448125 13.24875 -3.39625 13.3725 -2.3125 13.5 C0.95958771 14.03640782 3.50536076 14.76380035 6.5 16.125 C6.5 16.785 6.5 17.445 6.5 18.125 C7.6446875 18.2178125 7.6446875 18.2178125 8.8125 18.3125 C11.5 19.125 11.5 19.125 13.375 21.1875 C14.87563353 25.10582087 14.87153515 28.15170423 13.5 32.125 C10.08173912 35.72803174 7.09556771 36.93223763 2.23828125 37.29296875 C-3.54847692 37.33956101 -8.95076388 36.85676617 -14.5 35.125 C-15.5 34.125 -15.5 34.125 -15.59765625 32.05859375 C-15.58605469 31.23488281 -15.57445313 30.41117188 -15.5625 29.5625 C-15.55347656 28.73621094 -15.54445313 27.90992188 -15.53515625 27.05859375 C-15.52355469 26.42050781 -15.51195313 25.78242187 -15.5 25.125 C-14.53900391 25.3415625 -14.53900391 25.3415625 -13.55859375 25.5625 C-8.44592035 26.65970562 -3.73065258 27.56088772 1.5 27.125 C2.16 26.465 2.82 25.805 3.5 25.125 C2.46359375 24.81046875 1.4271875 24.4959375 0.359375 24.171875 C-1.01062131 23.74023233 -2.38040186 23.3079044 -3.75 22.875 C-4.43191406 22.67003906 -5.11382813 22.46507812 -5.81640625 22.25390625 C-9.96948258 20.92330898 -12.89060567 19.683265 -15.5 16.125 C-16.23359022 13.061182 -16.07273652 10.21550894 -15.5 7.125 C-13.6875 4.5625 -13.6875 4.5625 -11.5 3.125 C-10.51 3.125 -9.52 3.125 -8.5 3.125 C-8.5 2.465 -8.5 1.805 -8.5 1.125 C-5.64804778 -0.30097611 -3.17538825 -0.0070252 0 0 Z " fill="#9C9898" transform="translate(2198.5,607.875)"/>
<path d="M0 0 C2.06797658 1.18661442 3.99676753 2.44598628 5.69140625 4.140625 C5.73221408 6.14020864 5.73394981 8.14107754 5.69140625 10.140625 C1.69140625 10.140625 1.69140625 10.140625 -1.30859375 9.140625 C-6.91443853 8.58163763 -11.6667933 8.13028626 -16.55859375 11.140625 C-18.9671183 15.26952422 -18.91967299 17.40476089 -18.30859375 22.140625 C-16.89806891 24.3269385 -15.94272653 24.89150141 -13.55859375 25.828125 C-8.01335371 26.59829723 -2.63459893 26.01758503 2.87109375 25.26171875 C3.47179688 25.22175781 4.0725 25.18179688 4.69140625 25.140625 C5.69140625 26.140625 5.69140625 26.140625 6.00390625 29.015625 C5.69140625 32.140625 5.69140625 32.140625 4.00390625 33.953125 C-2.16906055 37.12302687 -9.90836558 36.92529304 -16.55859375 35.390625 C-21.82359805 32.99744123 -26.08209424 30.64828169 -28.30859375 25.140625 C-29.67225543 18.32231661 -29.88840761 13.18927601 -26.30859375 7.140625 C-24.11587726 4.36318411 -22.98132802 3.32409798 -19.55859375 2.390625 C-18.44484375 2.266875 -18.44484375 2.266875 -17.30859375 2.140625 C-17.30859375 1.480625 -17.30859375 0.820625 -17.30859375 0.140625 C-11.93864367 -1.64935836 -5.35934086 -1.9950169 0 0 Z " fill="#9C9898" transform="translate(2256.30859375,608.859375)"/>
<path d="M0 0 C3.125 0.1875 3.125 0.1875 6.125 2.1875 C6.125 2.8475 6.125 3.5075 6.125 4.1875 C7.775 3.8575 9.425 3.5275 11.125 3.1875 C11.125 2.5275 11.125 1.8675 11.125 1.1875 C17.875 0.0625 17.875 0.0625 20.125 1.1875 C20.125 3.8275 20.125 6.4675 20.125 9.1875 C19.43792969 9.30867187 18.75085937 9.42984375 18.04296875 9.5546875 C17.14191406 9.72226562 16.24085937 9.88984375 15.3125 10.0625 C14.41917969 10.22492187 13.52585937 10.38734375 12.60546875 10.5546875 C9.89772154 11.09938449 9.89772154 11.09938449 7.125 13.1875 C6.63230669 15.58758017 6.63230669 15.58758017 6.6484375 18.37890625 C6.6175 19.40564453 6.5865625 20.43238281 6.5546875 21.49023438 C6.53664063 22.56595703 6.51859375 23.64167969 6.5 24.75 C6.44922032 26.876399 6.39473854 29.00271395 6.3359375 31.12890625 C6.31837402 32.07451416 6.30081055 33.02012207 6.28271484 33.99438477 C6.125 36.1875 6.125 36.1875 5.125 37.1875 C3.3125 37.3203125 3.3125 37.3203125 1.125 37.3125 C0.403125 37.31507813 -0.31875 37.31765625 -1.0625 37.3203125 C-2.875 37.1875 -2.875 37.1875 -3.875 36.1875 C-3.97591475 33.60560554 -4.01471499 31.051035 -4.0078125 28.46875 C-4.00876923 27.69567505 -4.00972595 26.9226001 -4.01071167 26.12609863 C-4.01139341 24.48852456 -4.00953957 22.85094781 -4.00537109 21.21337891 C-4.00002271 18.69818079 -4.00531626 16.18316127 -4.01171875 13.66796875 C-4.01105797 12.08072877 -4.0097768 10.4934889 -4.0078125 8.90625 C-4.00983673 8.14896606 -4.01186096 7.39168213 -4.01394653 6.6114502 C-3.9852393 0.25990691 -3.9852393 0.25990691 0 0 Z " fill="#9C9898" transform="translate(1980.875,607.8125)"/>
<path d="M0 0 C2.97 0 5.94 0 9 0 C9.02526692 7.38728102 9.0428316 14.77455098 9.05493164 22.16186523 C9.05997363 24.67716895 9.06680703 27.19246972 9.07543945 29.70776367 C9.08751094 33.31429775 9.09322949 36.92079323 9.09765625 40.52734375 C9.10281754 41.65961899 9.10797882 42.79189423 9.11329651 43.95848083 C9.11337204 44.99948441 9.11344757 46.04048798 9.11352539 47.11303711 C9.115746 48.03459091 9.11796661 48.95614471 9.12025452 49.90562439 C9 52 9 52 8 53 C5.36 53 2.72 53 0 53 C0 35.51 0 18.02 0 0 Z " fill="#9C9898" transform="translate(2043,592)"/>
<path d="M0 0 C2 3 2 3 1.625 6.1875 C1.41875 7.115625 1.2125 8.04375 1 9 C-2.05263664 9.98120464 -3.94736336 9.98120464 -7 9 C-8.33157895 3.55263158 -8.33157895 3.55263158 -6.875 1.125 C-4.38370746 -0.36977553 -2.85550958 -0.43930917 0 0 Z " fill="#9C9898" transform="translate(2223,635)"/>
<path d="M0 0 C1.2684375 0.12375 1.2684375 0.12375 2.5625 0.25 C4.5625 3.25 4.5625 3.25 4.4375 5.8125 C3.5625 8.25 3.5625 8.25 1.75 9.6875 C-0.4375 10.25 -0.4375 10.25 -2.6875 9.375 C-3.265 9.00375 -3.8425 8.6325 -4.4375 8.25 C-3.43230397 0.35203118 -3.43230397 0.35203118 0 0 Z " fill="#9C9898" transform="translate(1844.4375,634.75)"/>
<path d="M0 0 C4.30338565 0.6563284 7.87674613 2.14671741 11.83203125 3.94140625 C12.46864182 4.22853989 13.10525238 4.51567352 13.76115417 4.81150818 C15.78050998 5.72364791 17.79651078 6.64294708 19.8125 7.5625 C21.1866332 8.1847215 22.56098005 8.8064714 23.93554688 9.42773438 C27.2928549 10.94637195 30.64719371 12.47144487 34 14 C30.11584077 15.29471974 29.07946596 14.41188016 25.4140625 12.7265625 C24.31835938 12.2315625 23.22265625 11.7365625 22.09375 11.2265625 C20.37671875 10.43378906 20.37671875 10.43378906 18.625 9.625 C16.36928223 8.59176873 14.11153773 7.56294799 11.8515625 6.5390625 C10.84947754 6.07709473 9.84739258 5.61512695 8.81494141 5.13916016 C6.1899288 4.07686104 3.78856421 3.4459406 1 3 C0.67 2.01 0.34 1.02 0 0 Z " fill="#CA4A6D" transform="translate(258,135)"/>
<path d="M0 0 C3.63 0.33 7.26 0.66 11 1 C11 1.66 11 2.32 11 3 C11.69867188 3.19335938 12.39734375 3.38671875 13.1171875 3.5859375 C14.02726563 3.84632813 14.93734375 4.10671875 15.875 4.375 C16.77992188 4.63023437 17.68484375 4.88546875 18.6171875 5.1484375 C21 6 21 6 23 8 C14.87248429 6.77078205 7.58520709 4.1149283 0 1 C0 0.67 0 0.34 0 0 Z " fill="#D33F69" transform="translate(220,764)"/>
<path d="M0 0 C2.00047023 2.54605302 3.82572785 4.9664636 5 8 C4.67 8.99 4.34 9.98 4 11 C2 9.4375 2 9.4375 0 7 C-0.25 3.25 -0.25 3.25 0 0 Z " fill="#D63664" transform="translate(635,365)"/>
<path d="M0 0 C3.39417765 3.12621626 5.6062718 5.56541027 7 10 C5.1875 9.9375 5.1875 9.9375 3 9 C0 3.10714286 0 3.10714286 0 0 Z " fill="#D93364" transform="translate(611,324)"/>
<path d="M0 0 C2.23960447 2.87949147 4.29864224 5.76742026 6 9 C5.67 9.66 5.34 10.32 5 11 C3.0625 10 3.0625 10 1 8 C0.33450549 5.30075428 0.18319237 2.79368363 0 0 Z " fill="#D23D68" transform="translate(626,347)"/>
<path d="M0 0 C2.96404505 2.80804268 5.44499019 5.18315774 7 9 C5.8225266 8.26708288 4.65823146 7.51296199 3.5 6.75 C2.52546875 6.12351562 2.52546875 6.12351562 1.53125 5.484375 C1.0259375 4.99453125 0.520625 4.5046875 0 4 C0 2.68 0 1.36 0 0 Z " fill="#D63866" transform="translate(604,315)"/>
<path d="M0 0 C4.38889325 0.66498383 7.9811485 2.18757677 12 4 C11.67 4.66 11.34 5.32 11 6 C9.3501725 5.57781184 7.70516335 5.13675575 6.0625 4.6875 C5.14597656 4.44386719 4.22945313 4.20023438 3.28515625 3.94921875 C2.53105469 3.63597656 1.77695312 3.32273438 1 3 C0.67 2.01 0.34 1.02 0 0 Z " fill="#D43D68" transform="translate(258,135)"/>
<path d="" fill="#9C9898" transform="translate(0,0)"/>
<path d="" fill="#9C9898" transform="translate(0,0)"/>
<path d="" fill="#9C9898" transform="translate(0,0)"/>
<path d="" fill="#9C9898" transform="translate(0,0)"/>
<path d="" fill="#9C9898" transform="translate(0,0)"/>
<path d="" fill="#9C9898" transform="translate(0,0)"/>
</svg>
